<?xml version="1.0" ?><svg id="Livello_1" style="enable-background:new 0 0 100 100;" version="1.1" viewBox="0 0 100 100" xml:space="preserve" xmlns="http://www.w3.org/2000/svg" xmlns:xlink="http://www.w3.org/1999/xlink"><path d="M64.4,71.1h-34c-1.1,0-2-0.9-2-2v-34c0-1.1,0.9-2,2-2h14c1.1,0,2,0.9,2,2s-0.9,2-2,2h-12v30h30v-14c0-1.1,0.9-2,2-2  s2,0.9,2,2v16C66.4,70.2,65.5,71.1,64.4,71.1z"/><g><path d="M43.2,58.4c-0.5,0-1-0.2-1.4-0.6c-0.5-0.5-0.7-1.1-0.6-1.7l1.6-10c0.1-0.4,0.3-0.8,0.6-1.1l19.6-19.7c0.8-0.8,2-0.8,2.8,0   l8.5,8.4c0.4,0.4,0.6,0.9,0.6,1.4s-0.2,1-0.6,1.4L54.6,56.2c-0.3,0.3-0.7,0.5-1.1,0.6l-10,1.6C43.4,58.3,43.3,58.4,43.2,58.4z    M53.2,55.1L53.2,55.1L53.2,55.1z M46.6,47.3l-1,6.7l6.7-1.1L70,35.1l-5.6-5.6L46.6,47.3z"/><path d="M67.1,42.3c-0.5,0-1-0.2-1.4-0.6l-7.8-7.8c-0.8-0.8-0.8-2,0-2.8c0.8-0.8,2-0.8,2.8,0l7.8,7.8c0.8,0.8,0.8,2,0,2.8   C68.1,42.1,67.6,42.3,67.1,42.3z"/></g><g/><g/><g/><g/><g/><g/></svg>